<svg width="96" height="96" viewBox="0 0 96 96" fill="none" xmlns="http://www.w3.org/2000/svg">
<g clip-path="url(#clip0_79_2968)">
<path d="M34.7831 58.0049C34.1995 55.7807 32.882 53.8105 31.0376 52.4039C29.1932 50.9973 26.9265 50.2341 24.5938 50.2341C22.261 50.2341 19.9943 50.9973 18.1499 52.4039C16.3055 53.8105 14.988 55.7807 14.4044 58.0049H19.9028C20.4896 56.9827 21.4036 56.1807 22.5021 55.724C23.6005 55.2673 24.8217 55.1816 25.9748 55.4804C27.1279 55.7791 28.1481 56.4455 28.8761 57.3754C29.6041 58.3053 29.999 59.4465 29.999 60.6207C29.999 61.7948 29.6041 62.936 28.8761 63.8659C28.1481 64.7958 27.1279 65.4622 25.9748 65.761C24.8217 66.0597 23.6005 65.974 22.5021 65.5173C21.4036 65.0606 20.4896 64.2586 19.9028 63.2364H14.4044C14.988 65.4606 16.3055 67.4308 18.1499 68.8374C19.9943 70.244 22.261 71.0072 24.5938 71.0072C26.9265 71.0072 29.1932 70.244 31.0376 68.8374C32.882 67.4308 34.1995 65.4606 34.7831 63.2364C35.2506 61.523 35.2506 59.7184 34.7831 58.0049Z" fill="#3C2E88"/>
<path d="M82.5956 58.0049C82.012 55.7807 80.6945 53.8105 78.8501 52.4039C77.0057 50.9973 74.739 50.2341 72.4062 50.2341C70.0734 50.2341 67.8068 50.9973 65.9624 52.4039C64.118 53.8105 62.8005 55.7807 62.2169 58.0049H67.7153C68.3021 56.9827 69.2161 56.1807 70.3146 55.724C71.413 55.2673 72.6342 55.1816 73.7873 55.4804C74.9404 55.7791 75.9606 56.4455 76.6886 57.3754C77.4166 58.3053 77.8115 59.4465 77.8115 60.6207C77.8115 61.7948 77.4166 62.936 76.6886 63.8659C75.9606 64.7958 74.9404 65.4622 73.7873 65.761C72.6342 66.0597 71.413 65.974 70.3146 65.5173C69.2161 65.0606 68.3021 64.2586 67.7153 63.2364H62.2169C62.8005 65.4606 64.118 67.4308 65.9624 68.8374C67.8068 70.244 70.0734 71.0072 72.4062 71.0072C74.739 71.0072 77.0057 70.244 78.8501 68.8374C80.6945 67.4308 82.012 65.4606 82.5956 63.2364C83.0631 61.523 83.0631 59.7184 82.5956 58.0049Z" fill="#3C2E88"/>
<path d="M75.0944 37.0788H66.0312C63.8213 33.2127 56.8406 24 40.5312 24C24.2219 24 17.1563 33.2336 14.9197 37.0788H8.65625C7.95177 37.0788 7.27614 37.3544 6.778 37.8449C6.27985 38.3355 6 39.0008 6 39.6946L6 60.6207C6 61.3144 6.27985 61.9797 6.778 62.4703C7.27614 62.9608 7.95177 63.2364 8.65625 63.2364H29.2847C29.7479 62.4401 29.9915 61.5384 29.9915 60.6207C29.9915 59.703 29.7479 58.8012 29.2847 58.0049H11.3125V42.3103H16.5453C17.0712 42.3117 17.5857 42.1593 18.0236 41.8725C18.4615 41.5856 18.803 41.1772 19.005 40.699C19.0528 40.5839 23.9191 29.2524 40.5312 29.2524C56.9681 29.2524 61.7122 40.2386 61.9034 40.6781C62.0994 41.1658 62.4398 41.5842 62.8803 41.879C63.3208 42.1738 63.8411 42.3313 64.3737 42.3313H75.0944C77.8958 42.3395 80.5805 43.4369 82.5644 45.3846C84.5482 47.3324 85.6707 49.9729 85.6875 52.7315V57.9944H82.5956C83.0631 59.7079 83.0631 61.5125 82.5956 63.226H88.3438C89.0482 63.226 89.7239 62.9504 90.222 62.4598C90.7201 61.9693 91 61.3039 91 60.6102V52.7315C90.9888 48.5818 89.3091 44.6053 86.3283 41.6719C83.3475 38.7385 79.3084 37.0871 75.0944 37.0788Z" fill="#E33E5A"/>
<path d="M67.7153 58.0049H34.7778C35.2453 59.7184 35.2453 61.523 34.7778 63.2364H77.0919C77.555 62.4401 77.7987 61.5384 77.7987 60.6207C77.7987 59.703 77.555 58.8012 77.0919 58.0049H67.7153Z" fill="#E33E5A"/>
</g>
<defs>
<clipPath id="clip0_79_2968">
<rect width="85" height="47" fill="white" transform="translate(6 24)"/>
</clipPath>
</defs>
</svg>
