<svg width="96" height="96" viewBox="0 0 96 96" fill="none" xmlns="http://www.w3.org/2000/svg">
<g clip-path="url(#clip0_79_2951)">
<path d="M62.9594 27.6079C59.2557 25.6563 55.2062 24.474 51.0475 24.1299C46.8888 23.7859 42.7042 24.287 38.7384 25.6041C39.1368 27.2668 39.6202 28.9073 40.1866 30.5189C46.6446 28.3444 53.679 28.7777 59.8309 31.7291C65.9828 34.6805 70.7802 39.9234 73.2283 46.3706C75.6763 52.8179 75.5872 59.9747 72.9793 66.357C70.3715 72.7393 65.445 77.8573 59.2216 80.6497C52.9982 83.4421 45.9553 83.6946 39.5534 81.3549C33.1516 79.0151 27.8821 74.2626 24.8376 68.083C21.7932 61.9033 21.2074 54.7707 23.2017 48.1642C25.1961 41.5577 29.6176 35.9842 35.5493 32.5996C34.9336 30.8059 34.4139 29.1147 34.0354 27.6131C27.7643 30.905 22.7637 36.2411 19.8362 42.7651C16.9086 49.2891 16.2238 56.6228 17.8917 63.5895C19.5595 70.5561 23.4833 76.7518 29.0334 81.1823C34.5835 85.6128 41.4382 88.0212 48.4974 88.0212C55.5567 88.0212 62.4114 85.6128 67.9615 81.1823C73.5116 76.7518 77.4353 70.5561 79.1032 63.5895C80.771 56.6228 80.0863 49.2891 77.1587 42.7651C74.2312 36.2411 69.2306 30.905 62.9594 27.6131V27.6079Z" fill="#3C2E88"/>
<path d="M40.7871 45.8629C40.116 44.3254 39.4297 42.6803 38.7687 41.0404C35.6016 43.1665 33.1934 46.2726 31.9011 49.8982C30.6088 53.5237 30.5012 57.4756 31.5942 61.1682C32.6872 64.8607 34.9227 68.0972 37.9692 70.398C41.0157 72.6987 44.7111 73.9412 48.5076 73.9412C52.3041 73.9412 55.9995 72.6987 59.046 70.398C62.0925 68.0972 64.328 64.8607 65.421 61.1682C66.514 57.4756 66.4064 53.5237 65.1141 49.8982C63.8218 46.2726 61.4136 43.1665 58.2465 41.0404C56.833 40.0909 55.2937 39.3506 53.6748 38.8418C50.3059 37.803 46.7093 37.803 43.3404 38.8418C43.9813 40.41 44.6524 42.009 45.3589 43.5926C48.3978 42.7834 51.6243 43.1493 54.4126 44.6192C57.201 46.089 59.3526 48.5582 60.4502 51.5478C61.5478 54.5375 61.5131 57.8346 60.353 60.7997C59.1928 63.7649 56.9898 66.1868 54.1712 67.5959C51.3525 69.005 48.1191 69.3008 45.0979 68.426C42.0766 67.5512 39.4829 65.568 37.8197 62.8612C36.1565 60.1543 35.5423 56.9166 36.0961 53.7758C36.65 50.6351 38.3325 47.8152 40.8174 45.8629H40.7871Z" fill="#3C2E88"/>
<path d="M48.4975 8C44.4826 8 40.6321 9.61984 37.7932 12.5032C34.9542 15.3865 33.3593 19.2971 33.3593 23.3748C33.4194 24.808 33.6463 26.2289 34.0355 27.6079C34.4139 29.1095 34.9337 30.8008 35.5493 32.5945C36.4626 35.2697 37.5677 38.1807 38.7586 41.0404C39.4297 42.6803 40.116 44.3049 40.777 45.8629C43.3 51.7412 45.6666 56.6611 46.2217 57.8091C46.4283 58.2423 46.7509 58.6077 47.1525 58.8634C47.5541 59.119 48.0184 59.2546 48.4924 59.2546C48.9664 59.2546 49.4308 59.119 49.8324 58.8634C50.234 58.6077 50.5565 58.2423 50.7631 57.8091C51.3182 56.6611 53.6646 51.7412 56.2078 45.8629C54.8611 44.8014 53.316 44.029 51.6664 43.5926C50.6117 46.0474 49.5319 48.4869 48.4975 50.7265C47.4882 48.4715 46.3832 46.0474 45.3285 43.5926C44.6423 42.009 43.9711 40.41 43.3101 38.8418C42.0991 35.8744 40.999 33.0096 40.1462 30.5189C39.5798 28.9073 39.0964 27.2668 38.698 25.6041C38.5237 24.8735 38.4256 24.1262 38.4053 23.3748C38.4053 20.6563 39.4686 18.0492 41.3613 16.127C43.2539 14.2048 45.8209 13.1249 48.4975 13.1249C51.174 13.1249 53.741 14.2048 55.6337 16.127C57.5263 18.0492 58.5896 20.6563 58.5896 23.3748C58.5627 24.127 58.4578 24.8742 58.2767 25.6041C59.8883 26.1427 61.4543 26.8128 62.9595 27.6079C63.3486 26.2289 63.5755 24.808 63.6356 23.3748C63.6356 19.2971 62.0407 15.3865 59.2018 12.5032C56.3628 9.61984 52.5123 8 48.4975 8Z" fill="#E33E5A"/>
<path d="M53.6646 38.8418C55.2835 39.3506 56.8229 40.0909 58.2364 41.0403C59.4121 38.1806 60.5323 35.2697 61.4457 32.5945C59.9763 31.7527 58.43 31.0576 56.8285 30.5189C55.9757 33.0096 54.8757 35.8744 53.6646 38.8418Z" fill="#E33E5A"/>
</g>
<defs>
<clipPath id="clip0_79_2951">
<rect width="63" height="80" fill="white" transform="translate(17 8)"/>
</clipPath>
</defs>
</svg>
