<svg width="96" height="96" viewBox="0 0 96 96" fill="none" xmlns="http://www.w3.org/2000/svg">
<g clip-path="url(#clip0_79_2962)">
<path d="M42.4807 55.9207L27.485 50.5171C26.9159 50.3098 26.2924 50.3012 25.7177 50.4928C25.143 50.6843 24.6517 51.0646 24.3252 51.5705C24.226 51.729 24.1423 51.8966 24.0752 52.0708L21.8888 58.0379L14.1596 79.0467C13.9963 79.4961 13.9596 79.981 14.0533 80.4495C14.147 80.918 14.3676 81.3524 14.6915 81.7063C15.0129 82.0613 15.4256 82.3233 15.8856 82.4643C16.3456 82.6053 16.8356 82.62 17.3034 82.5069L24.8997 80.6741L29.5277 86.9098C29.7754 87.2368 30.0967 87.5023 30.466 87.6851C30.8353 87.868 31.2426 87.9631 31.6555 87.9631C31.7818 87.962 31.9079 87.9533 32.0332 87.9368C32.5108 87.8701 32.9611 87.6761 33.3359 87.3755C33.7107 87.075 33.9959 86.6791 34.161 86.2304L39.7731 70.9571C38.0662 70.4763 36.4026 69.8563 34.7993 69.1032L30.8629 79.8051L28.1233 76.1184C27.8756 75.7914 27.5543 75.5259 27.185 75.3431C26.8157 75.1602 26.4084 75.0651 25.9955 75.0651C25.7841 75.0662 25.5736 75.0909 25.3678 75.1388L20.8781 76.2237L25.82 62.7832L27.8786 57.1847L28.1872 56.3473L38.1825 59.955L36.6452 64.1683C38.2339 64.956 39.8984 65.5842 41.6136 66.0433L44.0925 59.3072C44.2132 58.9802 44.2672 58.6328 44.2513 58.285C44.2355 57.9372 44.1502 57.5959 44.0003 57.281C43.8504 56.9661 43.6389 56.6837 43.3781 56.4502C43.1172 56.2167 42.8122 56.0368 42.4807 55.9207Z" fill="#3C2E88"/>
<path d="M82.7122 79.0467L75.0202 58.1222L72.7966 52.0761C72.7429 51.9373 72.677 51.8033 72.5998 51.6758C72.3312 51.2002 71.9179 50.8206 71.4189 50.5909C70.7803 50.2957 70.0494 50.2634 69.3868 50.5013L54.3911 55.9049C54.0622 56.0226 53.76 56.2033 53.5018 56.4367C53.2436 56.6702 53.0343 56.9517 52.8861 57.2653C52.7379 57.5788 52.6535 57.9183 52.638 58.2641C52.6224 58.61 52.6758 58.9555 52.7952 59.2809L55.2795 66.0433C56.9979 65.5904 58.666 64.9676 60.2585 64.1841L58.7052 59.9708L68.7006 56.3631L69.0411 57.2848L71.0944 62.878L76.0096 76.2395L71.5199 75.1546C71.009 75.0309 70.4725 75.0599 69.9783 75.238C69.484 75.4161 69.0542 75.7353 68.7432 76.1553L66.0089 79.8419L62.0884 69.1769C60.4826 69.9297 58.8152 70.5464 57.1041 71.0203L62.7108 86.2673C62.8759 86.716 63.1611 87.1118 63.5359 87.4124C63.9107 87.713 64.361 87.907 64.8386 87.9737C64.9638 87.9903 65.09 87.9991 65.2163 88C65.6292 88 66.0365 87.9048 66.4058 87.722C66.7751 87.5392 67.0964 87.2737 67.3441 86.9467L71.9721 80.7109L79.5684 82.5437C80.0354 82.6559 80.5243 82.6406 80.9833 82.4997C81.4422 82.3587 81.854 82.0973 82.1749 81.7432C82.5066 81.3863 82.7323 80.9456 82.8271 80.4698C82.9219 79.994 82.8821 79.5015 82.7122 79.0467Z" fill="#3C2E88"/>
<path d="M60.2639 64.1999C58.6713 64.9834 57.0032 65.6062 55.2848 66.0591C53.0664 66.6404 50.7812 66.9343 48.4864 66.9333C46.1514 66.935 43.8263 66.6322 41.5711 66.0327C39.8558 65.5736 38.1914 64.9455 36.6026 64.1578C33.2163 62.4787 30.2284 60.1074 27.8361 57.2005L25.7774 62.799C28.3843 65.4047 31.4278 67.543 34.7727 69.119C36.376 69.8721 38.0396 70.4922 39.7465 70.9729C42.5883 71.7807 45.5298 72.1937 48.4864 72.2C51.4018 72.1998 54.3032 71.8028 57.1094 71.0203C58.8205 70.5464 60.4879 69.9297 62.0938 69.1769C65.4415 67.6004 68.4884 65.4621 71.0997 62.8569L69.0464 57.2637C66.649 60.1665 63.6552 62.5309 60.2639 64.1999Z" fill="#E33E5A"/>
<path d="M48.4864 9C40.0245 9.00976 31.912 12.3422 25.9285 18.2662C19.945 24.1902 16.5792 32.2222 16.5693 40.6C16.5632 46.8054 18.4143 52.8734 21.8888 58.0379L24.0752 52.0919C24.1423 51.9176 24.226 51.7501 24.3252 51.5915C22.7183 48.1457 21.887 44.3953 21.8888 40.6C21.8973 33.6185 24.7022 26.9254 29.6884 21.9888C34.6746 17.0521 41.4349 14.275 48.4864 14.2667C55.538 14.275 62.2982 17.0521 67.2844 21.9888C72.2706 26.9254 75.0756 33.6185 75.084 40.6C75.0865 44.4327 74.2384 48.2192 72.5998 51.6916C72.677 51.8191 72.7429 51.953 72.7966 52.0919L75.0202 58.138C78.5368 52.9523 80.4112 46.846 80.4035 40.6C80.3937 32.2222 77.0278 24.1902 71.0443 18.2662C65.0609 12.3422 56.9483 9.00976 48.4864 9Z" fill="#E33E5A"/>
<path d="M52.9442 48.5C52.6851 48.5013 52.432 48.4221 52.2207 48.2735L48.4971 45.6402L44.7734 48.2735C44.5612 48.4225 44.3075 48.5025 44.0473 48.5025C43.7871 48.5025 43.5334 48.4225 43.3212 48.2735C43.1115 48.1227 42.9553 47.91 42.875 47.6659C42.7948 47.4219 42.7945 47.1589 42.8744 46.9147L44.2947 42.6487L40.571 40.0154C40.3583 39.8656 40.1993 39.6527 40.117 39.4074C40.0348 39.1621 40.0336 38.8973 40.1135 38.6513C40.1965 38.4072 40.3544 38.1948 40.5652 38.0438C40.7759 37.8927 41.029 37.8106 41.2891 37.8087H45.9065L47.3268 33.5427C47.4069 33.2998 47.5618 33.0879 47.7698 32.9368C47.9778 32.7856 48.2284 32.7028 48.4864 32.7C48.7465 32.6991 49.0002 32.7796 49.2114 32.93C49.4225 33.0804 49.5802 33.293 49.6621 33.5374L51.0824 37.8034H55.6997C55.9599 37.8053 56.213 37.8875 56.4237 38.0385C56.6344 38.1896 56.7923 38.402 56.8753 38.6461C56.9553 38.8921 56.954 39.1569 56.8718 39.4021C56.7895 39.6474 56.6305 39.8604 56.4178 40.0101L52.6942 42.6435L54.1145 46.9095C54.1943 47.1537 54.1941 47.4166 54.1138 47.6607C54.0335 47.9047 53.8774 48.1174 53.6676 48.2683C53.4566 48.418 53.2038 48.499 52.9442 48.5Z" fill="#E33E5A"/>
</g>
<defs>
<clipPath id="clip0_79_2962">
<rect width="68.8718" height="79" fill="white" transform="translate(14 9)"/>
</clipPath>
</defs>
</svg>
