<svg width="297" height="80" viewBox="0 0 297 80" fill="none" xmlns="http://www.w3.org/2000/svg">
<path d="M49.2942 70.9562C46.2874 70.9562 43.3453 70.0946 40.7616 68.4263L14.1381 51.2649C10.5886 48.9741 8.14435 45.4432 7.24827 41.3098C6.35717 37.1813 7.12382 32.9482 9.41379 29.4024L17.8419 16.3247C20.1319 12.7739 23.6614 10.3237 27.7933 9.43227C31.9203 8.54084 36.1518 9.30777 39.7012 11.5986L66.3247 28.7649C69.8742 31.0558 72.3185 34.5916 73.2145 38.7201C74.1056 42.8486 73.339 47.0817 71.049 50.6325L62.6209 63.7102C60.3309 67.261 56.8014 69.7062 52.6695 70.6026C51.5444 70.8367 50.4193 70.9562 49.2942 70.9562ZM44.3708 62.8337C48.6122 65.5677 54.2874 64.3426 57.0254 60.0996L65.4535 47.0219C66.7777 44.9651 67.2258 42.5199 66.708 40.1245C66.1903 37.7341 64.7765 35.6873 62.7205 34.3626L36.092 17.1912C34.036 15.8665 31.5867 15.4233 29.1972 15.9363C26.8077 16.4542 24.7616 17.8685 23.4374 19.9253L15.0143 33.008C13.6901 35.0647 13.242 37.5149 13.7598 39.9054C14.2775 42.2958 15.6913 44.3426 17.7473 45.6673L44.3708 62.8337Z" fill="#E33E5A"/>
<path d="M49.3988 70.9562C48.2787 70.9562 47.1486 70.8367 46.0285 70.5926C41.9016 69.7012 38.3671 67.251 36.0771 63.7002L27.649 50.6225C25.359 47.0717 24.5924 42.8386 25.4835 38.7102C26.3746 34.5817 28.8238 31.0458 32.3733 28.755L58.9968 11.5886C66.3247 6.86255 76.1268 8.98406 80.8511 16.3147L89.2792 29.3924C91.5692 32.9432 92.3359 37.1763 91.4448 41.3048C90.5536 45.4333 88.1044 48.9691 84.5549 51.26L57.9314 68.4263C55.3477 70.0946 52.4006 70.9562 49.3988 70.9562ZM67.5493 15.737C65.8518 15.737 64.1343 16.2102 62.606 17.1962L35.9825 34.3576C33.9265 35.6823 32.5127 37.7291 31.995 40.1195C31.4772 42.51 31.9253 44.9602 33.2495 47.0169L41.6776 60.0946C44.4106 64.3377 50.0858 65.5677 54.3322 62.8287L80.9557 45.6623C83.0117 44.3377 84.4255 42.2908 84.9432 39.9004C85.4609 37.51 85.0129 35.0598 83.6887 33.003L75.2606 19.9253C73.5083 17.2161 70.5562 15.737 67.5493 15.737Z" fill="white"/>
<path d="M39.7024 11.5977L36.0963 17.1941L62.7161 34.3601L66.3222 28.7637L39.7024 11.5977Z" fill="#E33E5A"/>
<path d="M133.023 25.1394H140.062L127.372 57.0418C126.676 58.7898 124.983 59.9402 123.101 59.9402C121.264 59.9402 119.606 58.8446 118.88 57.1614L105.11 25.1394H112.279L123.017 51.8775L133.023 25.1394Z" fill="white"/>
<path d="M146.563 16.4492C145.702 15.6225 145.274 14.5966 145.274 13.4064C145.274 12.1863 145.702 11.1604 146.563 10.2988C147.39 9.47211 148.415 9.04382 149.635 9.04382C150.79 9.04382 151.815 9.47211 152.677 10.3337C153.503 11.1952 153.931 12.2161 153.931 13.4064C153.931 14.5966 153.503 15.6225 152.677 16.4492C151.815 17.2759 150.795 17.7042 149.635 17.7042C148.415 17.7042 147.39 17.2709 146.563 16.4492ZM146.235 25.1394H152.975V59.9402H146.235V25.1394Z" fill="white"/>
<path d="M187.001 25.1394H194.041L181.351 57.0418C180.654 58.7898 178.962 59.9402 177.08 59.9402C175.243 59.9402 173.58 58.8446 172.858 57.1614L159.089 25.1394H166.257L176.995 51.8775L187.001 25.1394Z" fill="white"/>
<path d="M231.467 44.6066H204.047C204.938 51.0508 209.463 54.258 217.627 54.258C220.933 54.258 223.706 53.6952 225.692 53.1026C226.548 52.8386 227.708 52.3755 228.136 52.1763C228.565 51.9771 229.491 51.5837 229.525 51.5837V57.998C225.563 59.8506 221.331 60.7719 216.806 60.7719C210.593 60.7719 205.441 58.7898 202.205 55.4831C198.969 52.1763 197.182 47.749 197.182 42.6942C197.182 35.9512 200.154 30.0996 205.476 26.7629C208.154 25.1096 211.161 24.2829 214.531 24.2829C219.454 24.2829 223.552 25.9661 226.822 29.3426C230.058 32.744 231.681 37.1116 231.681 42.4303C231.666 43.1872 231.601 43.9143 231.467 44.6066ZM204.176 38.8247H225.453C224.527 33.4363 220.5 30.6275 214.78 30.6275C209.1 30.6275 205.237 33.4363 204.176 38.8247Z" fill="white"/>
<path d="M236.321 54.756L239.527 49.6315C241.642 51.3845 243.624 52.6394 245.441 53.4014C247.258 54.1932 249.309 54.5916 251.554 54.5916C256.477 54.5916 259.549 52.8088 259.549 49.995C259.713 48.4064 258.324 47.2858 256.871 46.5588C256.079 46.1305 253.929 45.5329 252.973 45.3038C252.445 45.1693 251.683 45.005 250.658 44.7759C249.602 44.5468 248.741 44.3476 248.114 44.1833C247.452 44.0189 246.66 43.8197 245.705 43.5558C243.788 43.0279 242.832 42.5647 241.378 41.8028C239.925 41.0408 239.133 40.1843 238.337 39.0289C237.51 37.8735 237.147 36.4492 237.147 34.7311C237.147 31.5239 238.436 28.9791 241.045 27.0966C243.619 25.2141 246.959 24.2878 251.021 24.2878C256.672 24.2878 261.859 26.24 265.393 29.1484L262.75 34.1633C260.535 32.8088 258.588 31.8526 256.901 31.2201C255.218 30.5926 253.401 30.2938 251.449 30.2938C249.234 30.2938 247.417 30.6922 245.998 31.4492C244.579 32.2062 243.848 33.2022 243.848 34.3576C243.848 35.1843 244.146 35.8765 244.973 36.4094C245.764 36.9372 246.262 37.2659 247.651 37.6295C248.343 37.7938 248.876 37.9283 249.239 38.0279C249.602 38.1275 250.23 38.2271 251.056 38.3914C251.883 38.5558 252.445 38.6554 252.709 38.7201C256.841 39.5468 259.778 40.5727 262.357 42.256C264.935 43.9741 266.255 46.489 266.255 49.7609C266.255 53.0976 264.965 55.742 262.357 57.7241C259.748 59.741 256.243 60.7321 251.853 60.7321C245.64 60.737 239.99 58.5856 236.321 54.756Z" fill="white"/>
<path d="M270.844 25.1394V14.7311H277.52V25.1394H287.895V30.7271H277.52V48.3765C277.52 49.7958 277.52 50.1594 277.685 51.2849C277.819 52.4104 278.083 52.7739 278.71 53.5309C279.502 54.5219 281.219 54.9502 283.863 54.9502C286.078 54.9502 288.159 54.7211 290.105 54.258V59.9104C287.462 60.4731 284.883 60.7669 282.409 60.7669C278.576 60.7669 275.932 59.8755 274.279 58.3516C273.09 57.2958 272.398 56.4691 271.87 55.0149C271.342 53.5608 271.108 52.7689 270.979 51.245C270.844 49.6564 270.844 49.4273 270.844 47.9731V30.7271" fill="white"/>
</svg>
